# Blender 3.3.1
# www.blender.org
mtllib range.mtl
o 円柱
v -0.877675 0.005904 -0.469127
v 0.000000 0.005904 0.000000
v 0.877675 0.005904 -0.469127
v -0.831470 0.005904 -0.555570
v -0.707107 0.005904 -0.707107
v -0.555570 0.005904 -0.831470
v -0.382683 0.005904 -0.923880
v -0.195090 0.005904 -0.980785
v 0.000000 0.005904 -1.000000
v 0.195090 0.005904 -0.980785
v 0.382683 0.005904 -0.923880
v 0.555570 0.005904 -0.831470
v 0.707107 0.005904 -0.707107
v 0.831470 0.005904 -0.555570
v -0.877675 -0.005261 -0.469127
v -0.000000 -0.005261 0.000000
v 0.877675 -0.005261 -0.469127
v -0.831470 -0.005261 -0.555570
v -0.707107 -0.005261 -0.707107
v -0.555570 -0.005261 -0.831470
v -0.382683 -0.005261 -0.923880
v -0.195090 -0.005261 -0.980785
v 0.000000 -0.005261 -1.000000
v 0.195090 -0.005261 -0.980785
v 0.382683 -0.005261 -0.923880
v 0.555570 -0.005261 -0.831470
v 0.707107 -0.005261 -0.707107
v 0.831470 -0.005261 -0.555570
vn -0.0000 1.0000 -0.0000
vn -0.0000 -1.0000 -0.0000
vn -0.4714 -0.0000 -0.8819
vn -0.4714 -0.0000 0.8819
vn -0.2903 -0.0000 -0.9569
vn -0.0980 -0.0000 -0.9952
vn 0.4714 -0.0000 0.8819
vn 0.0980 -0.0000 -0.9952
vn -0.8819 -0.0000 -0.4714
vn 0.2903 -0.0000 -0.9569
vn 0.8819 -0.0000 -0.4714
vn 0.4714 -0.0000 -0.8819
vn -0.7730 -0.0000 -0.6344
vn 0.6344 -0.0000 -0.7730
vn -0.6344 -0.0000 -0.7730
vn 0.7730 -0.0000 -0.6344
vt 0.637410 0.039358
vt 0.750000 0.250000
vt 0.637410 0.460642
vt 0.616663 0.050447
vt 0.580294 0.080294
vt 0.550447 0.116663
vt 0.528269 0.158156
vt 0.514612 0.203178
vt 0.510000 0.250000
vt 0.514612 0.296822
vt 0.528269 0.341844
vt 0.550447 0.383337
vt 0.580294 0.419706
vt 0.616663 0.449553
vt 0.637410 0.039358
vt 0.750000 0.250000
vt 0.637410 0.460642
vt 0.616663 0.050447
vt 0.580294 0.080294
vt 0.550447 0.116663
vt 0.528269 0.158156
vt 0.514612 0.203178
vt 0.510000 0.250000
vt 0.514612 0.296822
vt 0.528269 0.341844
vt 0.550447 0.383337
vt 0.580294 0.419706
vt 0.616663 0.449553
s 0
usemtl マテリアル
f 12/12/1 8/8/1 4/4/1
f 18/18/2 22/22/2 26/26/2
f 7/7/3 20/20/3 6/6/3
f 1/1/4 16/16/4 2/2/4
f 8/8/5 21/21/5 7/7/5
f 9/9/6 22/22/6 8/8/6
f 2/2/7 17/17/7 3/3/7
f 10/10/8 23/23/8 9/9/8
f 4/4/9 15/15/9 1/1/9
f 11/11/10 24/24/10 10/10/10
f 3/3/11 28/28/11 14/14/11
f 12/12/12 25/25/12 11/11/12
f 5/5/13 18/18/13 4/4/13
f 13/13/14 26/26/14 12/12/14
f 6/6/15 19/19/15 5/5/15
f 14/14/16 27/27/16 13/13/16
f 2/2/1 3/3/1 14/14/1
f 14/14/1 13/13/1 12/12/1
f 12/12/1 11/11/1 10/10/1
f 10/10/1 9/9/1 8/8/1
f 8/8/1 7/7/1 6/6/1
f 6/6/1 5/5/1 4/4/1
f 4/4/1 1/1/1 2/2/1
f 2/2/1 14/14/1 12/12/1
f 12/12/1 10/10/1 8/8/1
f 8/8/1 6/6/1 4/4/1
f 4/4/1 2/2/1 12/12/1
f 28/28/2 17/17/2 16/16/2
f 16/16/2 15/15/2 18/18/2
f 18/18/2 19/19/2 20/20/2
f 20/20/2 21/21/2 22/22/2
f 22/22/2 23/23/2 24/24/2
f 24/24/2 25/25/2 26/26/2
f 26/26/2 27/27/2 28/28/2
f 28/28/2 16/16/2 18/18/2
f 18/18/2 20/20/2 22/22/2
f 22/22/2 24/24/2 26/26/2
f 26/26/2 28/28/2 18/18/2
f 7/7/3 21/21/3 20/20/3
f 1/1/4 15/15/4 16/16/4
f 8/8/5 22/22/5 21/21/5
f 9/9/6 23/23/6 22/22/6
f 2/2/7 16/16/7 17/17/7
f 10/10/8 24/24/8 23/23/8
f 4/4/9 18/18/9 15/15/9
f 11/11/10 25/25/10 24/24/10
f 3/3/11 17/17/11 28/28/11
f 12/12/12 26/26/12 25/25/12
f 5/5/13 19/19/13 18/18/13
f 13/13/14 27/27/14 26/26/14
f 6/6/15 20/20/15 19/19/15
f 14/14/16 28/28/16 27/27/16
